# xmcd
#
# Track frame offsets:
#	182
#	10900
#	22430
#	33950
#	49710
#	64512
#	79402
#	94380
#	109215
#	120430
#	138780
#	157007
#	172062
#	184630
#	198035
#	210015
#	225700
#	244752
#	257840
#	271395
#	287265
#	300267
#
# Disc length: 4231 seconds
#
# Revision: 10
# Processed by: cddbd v1.5.2PL0 Copyright (c) Steve Scherf et al.
# Submitted via: audiograbber 1.83.01
#
DISCID=24108516
DTITLE=Various Artist - Time-Life - Rhythm And Blues - 1969
DYEAR=1991
DGENRE=Oldies
TTITLE0=Sly and The Family Stone - Everyday People
TTITLE1=Mel and Tim - Backfield In Motion
TTITLE2=Jerry Butler - Only The Strong Survive
TTITLE3=Diana Ross and The Supremes - Someday We'll Be Together
TTITLE4=Originals - Baby I'm For Real
TTITLE5=Booker T and The MG's - Time Is Tight
TTITLE6=Impressions - Choice Of Colors
TTITLE7=Aretha Franklin - Share Your Love With Me
TTITLE8=Junior Walker and The All Stars - What Does It Take (To Win Your Love)
TTITLE9=Smokey Robinson and The Miracles - Baby Baby Don't Cry
TTITLE10=Dells - Oh What A Night
TTITLE11=Edwin Starr - Twenty Five Miles
TTITLE12=Tyrone Davis - Can I Change My Mind
TTITLE13=Marvin Gaye - Too Busy Thinking About My Baby
TTITLE14=Sly And The Family Stone - Hot Fun In The Summertime
TTITLE15=David Ruffin - My Whole World Ended (The Moment You Left Me)
TTITLE16=Friends Of Distinction - Going In Circles
TTITLE17=Temptations - I Can't Get Next To You
TTITLE18=Meters - Cissy Strut
TTITLE19=Watts 103rd Street Rhythm Band - Do Your Thing
TTITLE20=Garland Green - Jealous Kind Of Fella
TTITLE21=Johnny Adams - Reconsider Me
EXTD=
EXTT0=
EXTT1=
EXTT2=
EXTT3=
EXTT4=
EXTT5=
EXTT6=
EXTT7=
EXTT8=
EXTT9=
EXTT10=
EXTT11=
EXTT12=
EXTT13=
EXTT14=
EXTT15=
EXTT16=
EXTT17=
EXTT18=
EXTT19=
EXTT20=
EXTT21=
PLAYORDER=
